<svg width="2365" height="1383" viewBox="0 0 2365 1383" fill="none" xmlns="http://www.w3.org/2000/svg">
<path d="M908.622 799.447L777.649 666.527L695.798 780.792L495.391 820.964L465.942 932.176L655.462 937.962L575.541 1112.93L894.618 1185.39L995.571 1025.93L817.061 980.785L908.622 799.447Z" fill="#C4E3EF"/>
<path d="M1486.76 1169.06L1405.75 1016.35L1267.06 1181.26L1081.52 1099.37L989.147 1278.5L1309.15 1336.98L1486.76 1169.06Z" fill="#C4E3EF"/>
<path d="M721.646 1262.55L573.755 1225.33L556.646 1302.42L721.646 1262.55Z" fill="#C4E3EF"/>
<path d="M450.626 1243.94H310.708V1360.91L450.626 1329.01V1243.94Z" fill="#C4E3EF"/>
<path d="M1605.24 745.659L1424.84 995.949L1524.54 1073.16L1666.99 880.631L2274.17 1025.96V869.155L1605.24 745.659Z" fill="#C4E3EF"/>
<path d="M2299.15 659.121L2166.65 789.377L2336.65 855.834L2364.15 683.045L2299.15 659.121Z" fill="#C4E3EF"/>
<path d="M2253.51 605.501L2172.51 452.794L2033.81 617.705L1848.27 535.814L1766.74 708.114L2078.24 774.272L2253.51 605.501Z" fill="#C4E3EF"/>
<path d="M1273.35 714.945L1181 874.441L1150.22 733.553H1010.3L1027.09 967.481L1236.97 1041.91L1421.66 760.135L1273.35 714.945Z" fill="#C4E3EF"/>
<path d="M404.889 1141.8L503.289 985.568L365.099 942.325L269.206 770.4L148.551 774.166L194.938 948.818L2.54834 932.176L10.4864 1235.4L199.672 1283.63L196.151 1108.18L404.889 1141.8Z" fill="#C4E3EF"/>
<path d="M540.584 614.882L353.73 574.524L487.812 507.579L449.243 379.814L217.155 459.63L199.691 671.795L535.738 762.769L540.584 614.882Z" fill="#C4E3EF"/>
<path d="M1734.15 1358.25L1635.01 1226.28L1522.65 1285.78L1606.65 1382.17L1734.15 1358.25Z" fill="#C4E3EF"/>
<path d="M2335.37 1247.06L2236.23 1115.1L2123.87 1174.59L2207.87 1270.98L2335.37 1247.06Z" fill="#C4E3EF"/>
<path d="M1996.89 1275.26L1874.97 1134.83L2024.17 1159.69L2075.84 1036.18L1840.79 964.602L1690.47 1122.39L1862.98 1315.72L1996.89 1275.26Z" fill="#C4E3EF"/>
<path d="M165.949 741.054C162.858 734.445 160.667 720.268 156.699 696.049M156.699 696.049C156.035 691.999 155.322 687.667 154.546 683.042C147.996 643.985 140.726 608.091 126.978 537.539C115.766 480.001 100.131 377.44 91.5433 320.882C79.4785 241.427 79.3469 199.897 76.3519 169.37C75.6549 162.265 75.7385 153.302 75.1431 152.526C62.4366 135.98 74.5116 199.509 78.12 283.222C82.4549 383.789 97.3168 429.307 101.593 461.87C104.153 481.366 106.987 496.758 111.805 519.998C116.637 543.311 121.421 563.899 128.638 601.365C132.345 620.609 135.855 641.428 137.677 663.447C139.449 684.859 149.098 698.374 152.093 702.27C153.037 703.499 155.257 700.154 156.699 696.049ZM156.699 696.049C157.011 695.161 157.287 694.236 157.505 693.315C160.181 682.029 152.778 625.263 142.566 544.555C133.874 475.856 126.256 427.214 123.261 398.741C120.141 369.076 119.04 350.925 113.05 316.753C103.333 261.323 108.214 239.825 105.219 221.024C102.258 202.432 96.2343 186.794 90.1902 170.629C85.3955 157.806 82.5615 144.646 77.2395 130.912M77.2395 130.912C75.066 125.303 72.4776 119.598 69.1711 113.781C59.6756 97.0752 46.9433 79.5708 33.0869 53.0751C23.161 34.095 15.6222 20.0668 12.6091 18.0898C-4.66716 6.75391 26.3753 57.3973 39.0047 74.2407C51.1612 90.4532 62.4595 109.11 71.4986 124.635C73.6507 128.331 74.5116 132.369 75.7204 131.787C76.2501 131.532 76.7561 131.24 77.2395 130.912ZM77.2395 130.912C78.5654 130.012 79.7211 128.844 80.7272 127.444M80.7272 127.444C86.8518 118.919 87.433 101.789 87.1095 84.2862M80.7272 127.444C80.0228 119.817 82.905 104.526 87.1095 84.2862M80.7272 127.444C80.8108 128.348 80.9448 129.145 81.133 129.829C86.413 149.023 98.5437 97.6352 112.364 84.6878C131.986 66.3048 147.871 56.2344 152.093 54.2768C170.007 45.9702 126.329 101.357 113.068 120.099C109.441 128.492 104.642 136.284 98.6339 144.017C96.1982 147.913 95.0074 151.751 90.1721 155.705M87.1095 84.2862C86.8354 69.4595 85.9121 54.3645 87.1591 44.0041C89.1293 27.6355 91.3629 14.9111 93.7625 10.3562C102.404 -6.04677 93.7806 52.2028 87.1952 83.8737C87.1666 84.0114 87.138 84.1489 87.1095 84.2862ZM1637.02 721.762C1638.85 717.844 1640.7 708.969 1641.63 670.175C1642.39 638.247 1640.73 581.425 1639.35 544.323C1636.55 469.384 1633.35 451.714 1631.96 439.382C1630.99 430.67 1631.09 448.813 1631.15 487.362M1631.15 487.362C1631.18 507.344 1631.19 532.809 1631.04 562.859C1630.84 601.933 1628.73 640.314 1630.1 686.337C1630.47 698.87 1637.94 650.97 1638.41 577.329C1638.79 517.352 1632.74 501.008 1631.15 487.362ZM1631.15 487.362C1631.11 487.02 1631.07 486.679 1631.04 486.339C1629.32 469.242 1625.97 457.651 1623.21 445.273C1620.04 431.001 1616.79 419.064 1608.49 404.223C1599.37 387.89 1591.91 375.55 1587.26 367.061C1578.13 350.367 1609.32 392.232 1615.35 404.119C1618.4 410.136 1622.26 416.007 1626.39 420.459C1628.3 422.516 1631.44 421.973 1634.67 416.096C1643.73 399.637 1650.79 374.6 1658.17 359.73C1664.01 347.98 1647.2 394.131 1640.27 412.519C1638.45 417.371 1637.27 421.797 1636.38 425.543M1636.38 425.543C1635.1 431.011 1634.45 435.029 1633.35 436.799C1629.6 442.839 1638.56 431.966 1648.56 421.756M1636.38 425.543C1639.44 424.616 1643.49 423.303 1648.56 421.756M1636.38 425.543C1635.24 425.888 1634.24 426.18 1633.37 426.41C1631.49 427.88 1631.49 430.818 1631.49 433.846M1648.56 421.756C1652.97 417.247 1657.59 412.867 1661.39 410.13C1676.15 399.518 1701.41 392.291 1716.65 393.76C1729.68 395.017 1686.01 412 1667.03 416.526C1659.81 418.404 1653.67 420.199 1648.56 421.756ZM2027.73 544.154C2026.14 541.613 2023.88 537.041 2020.44 529.723M2020.44 529.723C2015.39 518.946 2007.81 502.212 1996.16 477.238M2020.44 529.723C2020.18 532.607 2019.86 535.555 2019.47 538.572C2018.27 547.85 2015.94 544.116 2014.78 540.326C2013.61 536.536 2013.73 532.763 2012.41 528.371C2009.14 517.479 2002.57 498.917 1996.16 477.238M2020.44 529.723C2025.61 472.499 2006 440.851 1993.67 408.537C1983.39 381.612 1973.58 362.258 1962.68 342.055M1996.16 477.238C1992.48 469.341 1988.39 460.62 1983.85 451.002C1964.79 410.658 1930.73 354.23 1910.43 315.405C1881.01 259.126 1874.77 234.944 1875.34 228.042C1875.64 224.389 1881.73 222.385 1885.88 222.348C1890.82 222.303 1895.49 223.626 1899.95 226.077M1996.16 477.238C1991.1 460.071 1986.13 440.949 1983 422.133C1979.44 400.693 1973.37 378.715 1967.68 359.227C1965.99 353.4 1964.34 347.685 1962.68 342.055M1899.95 226.077C1909.77 231.483 1918.56 242.373 1927.07 256.176C1944.97 285.195 1953.96 312.463 1962.68 342.055M1899.95 226.077C1909.04 242.771 1922.11 265.354 1936.62 293.531C1946.28 312.296 1954.77 327.399 1962.68 342.055M1899.95 226.077C1897 220.667 1894.47 215.876 1892.44 211.713C1887.27 201.092 1879.69 194.006 1870.99 187.612M1870.99 187.612C1870.9 187.54 1870.8 187.468 1870.7 187.397M1870.99 187.612C1871.59 185.343 1872.25 183.703 1873.03 182.051C1874.81 178.261 1877.14 174.527 1879.5 170.096C1891.33 148.015 1910.9 119.359 1917.13 99.0823C1918.3 95.2921 1917.93 90.4488 1916.5 91.6151C1904.11 101.703 1890.67 113.571 1882.96 138.229C1877.96 154.246 1874.72 174.018 1870.7 187.397M1870.99 187.612C1870.22 190.549 1869.56 194.538 1868.88 200.964M1870.7 187.397C1868.6 185.861 1866.44 184.363 1864.23 182.863M1870.7 187.397C1869 193.063 1867.16 197.582 1864.99 200.184M1864.23 182.863C1860.7 180.468 1857.06 178.07 1853.37 175.506M1864.23 182.863C1865.05 188.374 1865.4 194.151 1864.99 200.184M1864.23 182.863C1861.62 165.356 1854.23 150.54 1851.31 138.734M1853.37 175.506C1851.51 174.21 1849.64 172.873 1847.77 171.473C1820.3 150.932 1787.72 126.82 1784.18 125.538C1765.97 118.957 1814.66 164.383 1828.83 178.921C1839.55 189.921 1849.99 203.416 1859.4 210.977C1862.43 213.415 1864.15 208.582 1864.75 202.925C1864.85 202.006 1864.93 201.092 1864.99 200.184M1853.37 175.506C1852.68 166.004 1851.98 152.684 1851.31 138.734M1853.37 175.506C1853.64 179.133 1853.9 182.204 1854.16 184.54C1854.85 190.809 1854.76 199.531 1856.51 200.908C1859.89 203.572 1862.63 203.004 1864.99 200.184M1851.31 138.734C1851.05 137.687 1850.83 136.664 1850.65 135.664C1848.6 124.464 1847.7 99.3274 1847.7 80.9989C1847.7 50.6501 1849.34 97.4501 1851.31 138.734ZM607.45 721.762C604.527 692.921 598.592 648.067 567.725 564.533C556.017 532.85 551.383 506.465 548.416 493.539C539.405 454.285 583.712 576.88 598.548 623.518C605.115 644.161 610.373 663.79 616.263 673.484C633.73 702.232 639.867 587.008 650.186 549.968C659.345 517.092 651.736 634.756 645.846 663.838C643.885 673.519 663.428 631.862 681.142 617.345C686.13 613.258 687.165 625.11 684.242 634.804C675.474 654.048 663.605 673.436 650.363 692.68C642.967 702.374 634.199 711.923 616.307 741.054M2276.28 589.262C2267.57 565.907 2262.61 545.96 2254.84 525.532C2251.4 516.484 2248.43 508.651 2246.28 503.053M2246.28 503.053C2244.27 497.815 2242.97 494.532 2242.66 494.037C2238.82 487.843 2241.38 493.217 2246.28 503.053ZM2246.28 503.053C2252.76 516.073 2263.32 536.913 2268.46 549.087C2274.07 562.354 2276.28 569.856 2276.89 574.858C2277.19 577.284 2278.74 579.198 2279.99 577.575C2293.6 559.909 2289.95 527.196 2292.77 511.799C2293.37 508.478 2293.08 505.785 2293.7 506.737C2303.13 521.313 2293.08 545.759 2291.53 558.139C2289.5 574.412 2288.73 583.228 2288.72 584.581C2288.63 597.798 2307.98 566.569 2317.01 563.211C2319.17 562.409 2321.06 561.877 2321.7 562.86C2326.84 570.698 2309.93 579.88 2302.45 583.569C2294.97 588.58 2289.37 592.59 2285.64 594.925C2283.76 595.938 2281.92 596.599 2278.14 597.281M2276.07 582.357C2271.54 592.769 2263.82 613.491 2256.65 628.578C2251.76 638.852 2247.57 645.627 2247.23 648.423C2256.61 640.118 2270.78 615.244 2279.93 599.082C2281.24 596.985 2282.52 594.919 2285.78 590.704" stroke="#F3B0CD" stroke-width="15" stroke-linecap="round"/>
</svg>
